<svg width="30" height="30" viewBox="0 0 30 30" fill="none" xmlns="http://www.w3.org/2000/svg">
<path fill-rule="evenodd" clip-rule="evenodd" d="M0 1.5C0 0.671573 0.671573 0 1.5 0H4.5C5.21502 0 5.83064 0.504689 5.97087 1.20583L6.32971 3H28.5C29.0199 3 29.5027 3.26918 29.776 3.7114C30.0493 4.15363 30.0741 4.70584 29.8416 5.17082L23.8416 17.1708C23.5876 17.679 23.0682 18 22.5 18H8.12132L5.12132 21H22.5C23.6935 21 24.8381 21.4741 25.682 22.318C26.5259 23.1619 27 24.3065 27 25.5C27 26.6935 26.5259 27.8381 25.682 28.682C24.8381 29.5259 23.6935 30 22.5 30C21.3065 30 20.1619 29.5259 19.318 28.682C18.4741 27.8381 18 26.6935 18 25.5C18 24.9841 18.0886 24.4773 18.2574 24H11.7426C11.9114 24.4773 12 24.9841 12 25.5C12 26.6935 11.5259 27.8381 10.682 28.682C9.83807 29.5259 8.69347 30 7.5 30C6.30653 30 5.16193 29.5259 4.31802 28.682C3.47411 27.8381 3 26.6935 3 25.5C3 24.8039 3.1613 24.1244 3.4632 23.5115C1.99359 22.5362 1.56037 20.3183 2.99984 18.8788L5.87169 16.007L3.6352 4.82454C3.631 4.80547 3.62715 4.78626 3.62368 4.76693L3.27029 3H1.5C0.671573 3 0 2.32843 0 1.5ZM6.92971 6L8.72971 15H21.573L26.073 6H6.92971ZM7.5 24C7.10218 24 6.72064 24.158 6.43934 24.4393C6.15804 24.7206 6 25.1022 6 25.5C6 25.8978 6.15804 26.2794 6.43934 26.5607C6.72064 26.842 7.10218 27 7.5 27C7.89782 27 8.27935 26.842 8.56066 26.5607C8.84196 26.2794 9 25.8978 9 25.5C9 25.1022 8.84196 24.7206 8.56066 24.4393C8.27935 24.158 7.89782 24 7.5 24ZM22.5 24C22.1022 24 21.7206 24.158 21.4393 24.4393C21.158 24.7206 21 25.1022 21 25.5C21 25.8978 21.158 26.2794 21.4393 26.5607C21.7206 26.842 22.1022 27 22.5 27C22.8978 27 23.2794 26.842 23.5607 26.5607C23.842 26.2794 24 25.8978 24 25.5C24 25.1022 23.842 24.7206 23.5607 24.4393C23.2794 24.158 22.8978 24 22.5 24Z" fill="#242B64"/>
</svg>
